STARTFONT 2.1
FONT -FontForge-Fontdiner Swanky-Book-R-Normal--14-140-72-72-P-88-ISO10646-1
SIZE 14 72 72
FONTBOUNDINGBOX 20 22 -4 -7
COMMENT "Generated by fontforge, http://fontforge.sourceforge.net"
COMMENT "Copyright (c) 2010 by Font Diner, Inc. All rights reserved."
STARTPROPERTIES 39
FOUNDRY "FontForge"
FAMILY_NAME "Fontdiner Swanky"
WEIGHT_NAME "Book"
SLANT "R"
SETWIDTH_NAME "Normal"
ADD_STYLE_NAME ""
PIXEL_SIZE 14
POINT_SIZE 140
RESOLUTION_X 72
RESOLUTION_Y 72
SPACING "P"
AVERAGE_WIDTH 88
CHARSET_REGISTRY "ISO10646"
CHARSET_ENCODING "1"
FONTNAME_REGISTRY ""
CHARSET_COLLECTIONS "ISO10646-1"
FONT_NAME "FontdinerSwanky-Regular"
FACE_NAME "Fontdiner Swanky Regular"
COPYRIGHT "Copyright (c) 2010 by Font Diner, Inc. All rights reserved."
FONT_VERSION "1.001"
FONT_ASCENT 11
FONT_DESCENT 3
UNDERLINE_POSITION -1
UNDERLINE_THICKNESS 1
X_HEIGHT 7
CAP_HEIGHT 8
RAW_ASCENT 799
RAW_DESCENT 200
NORM_SPACE 4
RELATIVE_WEIGHT 40
RELATIVE_SETWIDTH 50
SUPERSCRIPT_X 0
SUPERSCRIPT_Y 6
SUPERSCRIPT_SIZE 8
SUBSCRIPT_X 0
SUBSCRIPT_Y 1
SUBSCRIPT_SIZE 8
AVG_LOWERCASE_WIDTH 88
AVG_UPPERCASE_WIDTH 107
ENDPROPERTIES
CHARS 231
STARTCHAR space
ENCODING 32
SWIDTH 320 0
DWIDTH 4 0
BBX 1 1 0 0
BITMAP
00
ENDCHAR
STARTCHAR exclam
ENCODING 33
SWIDTH 305 0
DWIDTH 4 0
BBX 4 12 0 0
BITMAP
70
70
70
70
70
60
60
60
60
00
E0
E0
ENDCHAR
STARTCHAR quotedbl
ENCODING 34
SWIDTH 369 0
DWIDTH 5 0
BBX 5 3 0 6
BITMAP
D8
D8
D8
ENDCHAR
STARTCHAR numbersign
ENCODING 35
SWIDTH 702 0
DWIDTH 10 0
BBX 10 10 0 0
BITMAP
0900
3300
7FC0
FFC0
3300
3200
FF80
FF80
2200
2600
ENDCHAR
STARTCHAR dollar
ENCODING 36
SWIDTH 545 0
DWIDTH 8 0
BBX 8 12 0 -2
BITMAP
30
12
7E
C6
E2
7C
BE
87
E6
BC
18
18
ENDCHAR
STARTCHAR percent
ENCODING 37
SWIDTH 657 0
DWIDTH 9 0
BBX 9 12 0 -1
BITMAP
0300
F300
D600
F600
2C00
0C00
0C00
1B00
1E80
3680
3380
1000
ENDCHAR
STARTCHAR ampersand
ENCODING 38
SWIDTH 668 0
DWIDTH 9 0
BBX 11 12 0 -2
BITMAP
3C00
6600
6600
3C00
1900
7D00
6F80
E760
7FC0
7B00
0200
0400
ENDCHAR
STARTCHAR quotesingle
ENCODING 39
SWIDTH 177 0
DWIDTH 2 0
BBX 2 3 0 6
BITMAP
C0
C0
C0
ENDCHAR
STARTCHAR parenleft
ENCODING 40
SWIDTH 384 0
DWIDTH 5 0
BBX 5 14 1 -2
BITMAP
10
20
60
C0
C0
C0
C0
C0
C0
C0
C0
60
20
18
ENDCHAR
STARTCHAR parenright
ENCODING 41
SWIDTH 375 0
DWIDTH 5 0
BBX 5 14 0 -2
BITMAP
80
60
30
30
30
18
18
18
18
30
30
30
60
80
ENDCHAR
STARTCHAR asterisk
ENCODING 42
SWIDTH 640 0
DWIDTH 9 0
BBX 9 9 0 0
BITMAP
2400
7700
3600
FC80
FF80
9C00
3600
7700
2400
ENDCHAR
STARTCHAR plus
ENCODING 43
SWIDTH 607 0
DWIDTH 9 0
BBX 8 9 0 0
BITMAP
18
18
18
FF
FF
18
18
18
04
ENDCHAR
STARTCHAR comma
ENCODING 44
SWIDTH 226 0
DWIDTH 3 0
BBX 3 4 0 -3
BITMAP
E0
E0
60
40
ENDCHAR
STARTCHAR hyphen
ENCODING 45
SWIDTH 549 0
DWIDTH 8 0
BBX 6 2 1 4
BITMAP
FC
FC
ENDCHAR
STARTCHAR period
ENCODING 46
SWIDTH 226 0
DWIDTH 3 0
BBX 3 2 0 -1
BITMAP
E0
E0
ENDCHAR
STARTCHAR slash
ENCODING 47
SWIDTH 600 0
DWIDTH 8 0
BBX 9 13 0 -1
BITMAP
0300
0380
0700
0600
0E00
1C00
1800
3800
3000
7000
E000
C000
C000
ENDCHAR
STARTCHAR zero
ENCODING 48
SWIDTH 740 0
DWIDTH 10 0
BBX 10 9 0 0
BITMAP
1E00
7F80
61C0
E0C0
E0C0
E0C0
61C0
7380
1E00
ENDCHAR
STARTCHAR one
ENCODING 49
SWIDTH 503 0
DWIDTH 7 0
BBX 9 10 -1 0
BITMAP
1C00
FC00
0C00
0C00
0C00
0C00
0C00
0C00
0C00
7F80
ENDCHAR
STARTCHAR two
ENCODING 50
SWIDTH 638 0
DWIDTH 9 0
BBX 9 11 0 0
BITMAP
8000
5E00
7700
6380
4300
4300
4E80
3900
7100
E100
FF00
ENDCHAR
STARTCHAR three
ENCODING 51
SWIDTH 620 0
DWIDTH 9 0
BBX 8 13 0 -2
BITMAP
80
9C
FF
43
43
47
1F
47
43
C7
FE
98
80
ENDCHAR
STARTCHAR four
ENCODING 52
SWIDTH 606 0
DWIDTH 8 0
BBX 9 12 -1 -1
BITMAP
0100
0200
0200
0600
0E00
1E80
3680
6780
FF80
0680
0680
3F80
ENDCHAR
STARTCHAR five
ENCODING 53
SWIDTH 610 0
DWIDTH 9 0
BBX 8 11 0 -1
BITMAP
3F
FF
C1
D9
7E
47
03
43
67
BE
80
ENDCHAR
STARTCHAR six
ENCODING 54
SWIDTH 619 0
DWIDTH 9 0
BBX 9 13 0 -1
BITMAP
0100
0100
1900
3F00
7300
6100
FF00
E300
E380
C380
E300
6700
3E00
ENDCHAR
STARTCHAR seven
ENCODING 55
SWIDTH 598 0
DWIDTH 8 0
BBX 9 11 0 -1
BITMAP
FF80
FF80
4300
4700
4600
0600
0600
0C00
0C00
1C00
7F80
ENDCHAR
STARTCHAR eight
ENCODING 56
SWIDTH 642 0
DWIDTH 9 0
BBX 9 11 0 -1
BITMAP
1C00
7700
6300
6300
6300
7F00
F780
E380
E380
E380
7F00
ENDCHAR
STARTCHAR nine
ENCODING 57
SWIDTH 610 0
DWIDTH 9 0
BBX 8 12 0 -2
BITMAP
3C
66
E3
C3
E3
E7
7F
43
67
7E
48
40
ENDCHAR
STARTCHAR colon
ENCODING 58
SWIDTH 223 0
DWIDTH 3 0
BBX 3 6 0 -1
BITMAP
40
E0
40
00
E0
E0
ENDCHAR
STARTCHAR semicolon
ENCODING 59
SWIDTH 228 0
DWIDTH 3 0
BBX 3 8 0 -3
BITMAP
40
E0
40
00
E0
E0
60
40
ENDCHAR
STARTCHAR less
ENCODING 60
SWIDTH 563 0
DWIDTH 8 0
BBX 8 9 0 0
BITMAP
03
07
1F
7C
F0
38
1C
06
01
ENDCHAR
STARTCHAR equal
ENCODING 61
SWIDTH 531 0
DWIDTH 7 0
BBX 7 6 0 1
BITMAP
80
FE
FE
02
FE
FE
ENDCHAR
STARTCHAR greater
ENCODING 62
SWIDTH 576 0
DWIDTH 8 0
BBX 8 9 0 0
BITMAP
C0
F0
78
3E
0F
0C
38
60
40
ENDCHAR
STARTCHAR question
ENCODING 63
SWIDTH 592 0
DWIDTH 8 0
BBX 8 12 0 0
BITMAP
40
7C
87
83
03
03
3E
38
30
10
60
E0
ENDCHAR
STARTCHAR at
ENCODING 64
SWIDTH 792 0
DWIDTH 11 0
BBX 11 10 0 -1
BITMAP
3F80
60C0
4F60
D920
C720
D920
D960
6F60
31C0
0E00
ENDCHAR
STARTCHAR A
ENCODING 65
SWIDTH 788 0
DWIDTH 11 0
BBX 16 12 -2 -3
BITMAP
1F80
0180
0380
03C0
04C0
04E0
0FE0
1870
3030
FE38
003F
0060
ENDCHAR
STARTCHAR B
ENCODING 66
SWIDTH 774 0
DWIDTH 11 0
BBX 13 11 -2 -2
BITMAP
FFE0
1C70
1C18
0C38
0FF0
0FE0
0C70
0C30
0CF0
1FC0
6000
ENDCHAR
STARTCHAR C
ENCODING 67
SWIDTH 766 0
DWIDTH 11 0
BBX 11 12 0 -1
BITMAP
0020
0620
3FC0
70C0
6040
E040
E000
E000
6040
7040
3FC0
0F20
ENDCHAR
STARTCHAR D
ENCODING 68
SWIDTH 833 0
DWIDTH 12 0
BBX 14 9 -2 0
BITMAP
FFF0
0E38
0E18
0E1C
061C
061C
0618
0638
3FE0
ENDCHAR
STARTCHAR E
ENCODING 69
SWIDTH 781 0
DWIDTH 11 0
BBX 11 10 -1 0
BITMAP
DFE0
3C20
1CA0
1CA0
1D20
1F20
1F20
1D20
1CA0
FFE0
ENDCHAR
STARTCHAR F
ENCODING 70
SWIDTH 731 0
DWIDTH 10 0
BBX 11 11 -1 -1
BITMAP
8FE0
7C60
1C20
1D20
1D20
1F20
1B00
1900
1900
1800
FF00
ENDCHAR
STARTCHAR G
ENCODING 71
SWIDTH 828 0
DWIDTH 12 0
BBX 13 12 0 -1
BITMAP
0020
0E40
3FC0
70C0
6040
E040
E7F8
E0C0
60C0
70C0
3FE0
0420
ENDCHAR
STARTCHAR H
ENCODING 72
SWIDTH 797 0
DWIDTH 11 0
BBX 13 11 -1 -1
BITMAP
03F8
FEE0
38E0
38E0
38E0
3FE0
3FE0
38E0
18E0
19F8
FF00
ENDCHAR
STARTCHAR I
ENCODING 73
SWIDTH 445 0
DWIDTH 6 0
BBX 9 11 -1 -1
BITMAP
FF80
3C00
1C00
1C00
1800
1800
1800
1800
1800
1800
FF00
ENDCHAR
STARTCHAR J
ENCODING 74
SWIDTH 718 0
DWIDTH 10 0
BBX 14 12 -2 -2
BITMAP
00FC
1FC0
00C0
00E0
00E0
0060
0060
FE60
3860
18C0
0DC0
0700
ENDCHAR
STARTCHAR K
ENCODING 75
SWIDTH 934 0
DWIDTH 13 0
BBX 17 11 -1 -1
BITMAP
FFC700
1C3800
1C6000
1DC000
1F8000
1DC000
18E000
186000
183000
7F3800
00FF80
ENDCHAR
STARTCHAR L
ENCODING 76
SWIDTH 712 0
DWIDTH 10 0
BBX 11 11 -1 0
BITMAP
FF80
1C00
1C00
1C00
1C00
1C20
1C20
1C20
0C60
1FE0
FF80
ENDCHAR
STARTCHAR M
ENCODING 77
SWIDTH 1033 0
DWIDTH 14 0
BBX 17 10 -1 0
BITMAP
FC1F80
1C3C00
1E3C00
1E7C00
1F5C00
1BDC00
1B9800
199800
091800
FFFF80
ENDCHAR
STARTCHAR N
ENCODING 78
SWIDTH 840 0
DWIDTH 12 0
BBX 14 11 -1 -1
BITMAP
FFFC
1E20
1E20
1720
1BA0
19E0
19E0
18E0
1860
FFA0
0010
ENDCHAR
STARTCHAR O
ENCODING 79
SWIDTH 808 0
DWIDTH 11 0
BBX 11 9 0 0
BITMAP
0E00
3F80
70C0
E0E0
E0E0
E0E0
60E0
71C0
1F80
ENDCHAR
STARTCHAR P
ENCODING 80
SWIDTH 746 0
DWIDTH 10 0
BBX 12 9 -1 0
BITMAP
FF80
19E0
1830
1860
1FC0
1C00
1C00
1C00
FF80
ENDCHAR
STARTCHAR Q
ENCODING 81
SWIDTH 789 0
DWIDTH 11 0
BBX 13 13 0 -4
BITMAP
1F00
79C0
60C0
E0E0
E0E0
60E0
70C0
3F80
0F00
0300
03F8
03C0
1C00
ENDCHAR
STARTCHAR R
ENCODING 82
SWIDTH 826 0
DWIDTH 12 0
BBX 16 13 -1 -4
BITMAP
FF80
18E0
1830
1860
1F80
1CC0
1CC0
1C60
3F70
C0BF
0038
0060
0080
ENDCHAR
STARTCHAR S
ENCODING 83
SWIDTH 661 0
DWIDTH 9 0
BBX 9 12 0 -2
BITMAP
0080
7E80
E380
E080
FC80
7F00
0F80
4380
4380
7F00
8000
8000
ENDCHAR
STARTCHAR T
ENCODING 84
SWIDTH 754 0
DWIDTH 11 0
BBX 9 9 1 0
BITMAP
FF80
9980
9880
9880
9880
1800
1800
1800
FF00
ENDCHAR
STARTCHAR U
ENCODING 85
SWIDTH 725 0
DWIDTH 10 0
BBX 12 9 -1 0
BITMAP
FFF0
3840
3840
3840
3840
3840
3840
38C0
1F80
ENDCHAR
STARTCHAR V
ENCODING 86
SWIDTH 786 0
DWIDTH 11 0
BBX 15 11 -2 -1
BITMAP
0780
FC7E
1C10
0C20
0E20
0640
0740
0380
0380
0100
0100
ENDCHAR
STARTCHAR W
ENCODING 87
SWIDTH 1026 0
DWIDTH 14 0
BBX 18 10 -2 -1
BITMAP
FF1FC0
1C4300
1C6200
0CE600
0EF400
07B400
07BC00
031800
031800
021000
ENDCHAR
STARTCHAR X
ENCODING 88
SWIDTH 860 0
DWIDTH 12 0
BBX 14 10 -1 -1
BITMAP
8304
7CF8
0E40
0780
0700
0780
0DC0
18E0
FC70
03FC
ENDCHAR
STARTCHAR Y
ENCODING 89
SWIDTH 848 0
DWIDTH 12 0
BBX 15 10 -2 -1
BITMAP
FF00
0C7E
0630
0760
03C0
0180
0180
0180
0180
0FF8
ENDCHAR
STARTCHAR Z
ENCODING 90
SWIDTH 685 0
DWIDTH 10 0
BBX 10 9 0 0
BITMAP
01C0
FF80
4700
4700
4E40
1C40
3880
7C80
FF80
ENDCHAR
STARTCHAR bracketleft
ENCODING 91
SWIDTH 380 0
DWIDTH 5 0
BBX 5 14 1 -2
BITMAP
88
F0
C0
C0
C0
C0
C0
C0
C0
C0
C0
C0
E0
F8
ENDCHAR
STARTCHAR backslash
ENCODING 92
SWIDTH 680 0
DWIDTH 10 0
BBX 9 13 0 -1
BITMAP
6000
E000
7000
3000
3800
1C00
0C00
0E00
0600
0700
0380
0180
0180
ENDCHAR
STARTCHAR bracketright
ENCODING 93
SWIDTH 371 0
DWIDTH 5 0
BBX 6 14 -1 -2
BITMAP
C4
3C
1C
1C
1C
18
18
18
18
18
08
08
18
78
ENDCHAR
STARTCHAR asciicircum
ENCODING 94
SWIDTH 671 0
DWIDTH 9 0
BBX 9 8 0 4
BITMAP
0800
1C00
1C00
3E00
3300
7100
E180
E000
ENDCHAR
STARTCHAR underscore
ENCODING 95
SWIDTH 840 0
DWIDTH 12 0
BBX 12 3 0 -2
BITMAP
FFF0
FFF0
0010
ENDCHAR
STARTCHAR grave
ENCODING 96
SWIDTH 707 0
DWIDTH 10 0
BBX 3 4 4 8
BITMAP
40
C0
60
40
ENDCHAR
STARTCHAR a
ENCODING 97
SWIDTH 572 0
DWIDTH 8 0
BBX 9 8 0 0
BITMAP
3C00
6600
6600
4600
7E00
C600
EE00
3F80
ENDCHAR
STARTCHAR b
ENCODING 98
SWIDTH 723 0
DWIDTH 10 0
BBX 12 13 -2 -2
BITMAP
0200
FC00
1C00
0C00
0C00
0C00
0C00
0FE0
0C70
0C30
0C70
0CE0
3F80
ENDCHAR
STARTCHAR c
ENCODING 99
SWIDTH 589 0
DWIDTH 8 0
BBX 8 8 0 -1
BITMAP
1E
77
63
E2
E1
61
7F
1C
ENDCHAR
STARTCHAR d
ENCODING 100
SWIDTH 713 0
DWIDTH 10 0
BBX 10 13 1 -2
BITMAP
1F80
0380
0380
0380
0300
0300
7F00
C300
C300
C300
C300
7F00
03C0
ENDCHAR
STARTCHAR e
ENCODING 101
SWIDTH 593 0
DWIDTH 8 0
BBX 8 7 0 -1
BITMAP
3E
63
E3
FF
61
72
1C
ENDCHAR
STARTCHAR f
ENCODING 102
SWIDTH 507 0
DWIDTH 7 0
BBX 9 19 -1 -6
BITMAP
0F00
1980
1980
1800
1800
1800
7F00
1800
1C00
0C00
0C00
0C00
0C00
0C00
0C00
CC00
CC00
7800
3000
ENDCHAR
STARTCHAR g
ENCODING 103
SWIDTH 606 0
DWIDTH 8 0
BBX 9 16 0 -7
BITMAP
0300
0380
3D80
6700
E300
C300
6300
6600
7C00
7000
3F00
E380
C180
C180
6300
3E00
ENDCHAR
STARTCHAR h
ENCODING 104
SWIDTH 678 0
DWIDTH 10 0
BBX 13 13 -2 -1
BITMAP
DC00
3C00
1C00
1C00
0C00
0C00
0F80
0EE0
0C60
0C60
0C60
3E60
01F8
ENDCHAR
STARTCHAR i
ENCODING 105
SWIDTH 393 0
DWIDTH 6 0
BBX 6 11 0 0
BITMAP
30
38
30
80
78
30
30
30
30
30
FC
ENDCHAR
STARTCHAR j
ENCODING 106
SWIDTH 385 0
DWIDTH 5 0
BBX 6 15 -1 -5
BITMAP
38
38
10
D8
38
18
18
1C
0C
0C
0C
CC
CC
D8
30
ENDCHAR
STARTCHAR k
ENCODING 107
SWIDTH 749 0
DWIDTH 10 0
BBX 14 12 -2 -1
BITMAP
FC00
1C00
0DFC
0C60
0D80
0F00
0F80
0CC0
0CC0
0C60
3F30
40FC
ENDCHAR
STARTCHAR l
ENCODING 108
SWIDTH 369 0
DWIDTH 5 0
BBX 8 13 -2 -1
BITMAP
FC
0C
0C
0C
0C
0C
0C
0C
0C
0C
0C
0C
3F
ENDCHAR
STARTCHAR m
ENCODING 109
SWIDTH 990 0
DWIDTH 14 0
BBX 16 7 -1 1
BITMAP
0800
FFFC
19CC
18CC
188C
188C
67F3
ENDCHAR
STARTCHAR n
ENCODING 110
SWIDTH 643 0
DWIDTH 9 0
BBX 11 7 -1 1
BITMAP
0800
FF80
19C0
18C0
18C0
1880
67E0
ENDCHAR
STARTCHAR o
ENCODING 111
SWIDTH 705 0
DWIDTH 10 0
BBX 10 7 0 0
BITMAP
1E00
7380
E1C0
C1C0
E1C0
6180
3F00
ENDCHAR
STARTCHAR p
ENCODING 112
SWIDTH 723 0
DWIDTH 10 0
BBX 12 11 -2 -3
BITMAP
DC00
3FC0
0EE0
0C30
0C30
0C30
0FE0
0DC0
0C00
0C00
7F80
ENDCHAR
STARTCHAR q
ENCODING 113
SWIDTH 682 0
DWIDTH 10 0
BBX 11 11 0 -3
BITMAP
03E0
3F80
6300
C300
C300
E300
7F00
0300
0300
0300
1FE0
ENDCHAR
STARTCHAR r
ENCODING 114
SWIDTH 595 0
DWIDTH 8 0
BBX 10 8 -1 0
BITMAP
FFC0
1FC0
1C80
1800
1800
1800
1C00
7F80
ENDCHAR
STARTCHAR s
ENCODING 115
SWIDTH 533 0
DWIDTH 7 0
BBX 7 10 0 -1
BITMAP
02
7E
C6
E2
7E
BE
46
E6
BC
80
ENDCHAR
STARTCHAR t
ENCODING 116
SWIDTH 422 0
DWIDTH 6 0
BBX 6 13 0 0
BITMAP
10
10
30
70
FC
60
60
60
60
64
64
64
78
ENDCHAR
STARTCHAR u
ENCODING 117
SWIDTH 614 0
DWIDTH 9 0
BBX 11 8 -1 -1
BITMAP
F780
3180
3180
3180
3180
3180
1FE0
0100
ENDCHAR
STARTCHAR v
ENCODING 118
SWIDTH 639 0
DWIDTH 9 0
BBX 13 9 -2 -1
BITMAP
0600
FB08
18F0
0CC0
0C80
0780
0700
0300
0200
ENDCHAR
STARTCHAR w
ENCODING 119
SWIDTH 805 0
DWIDTH 11 0
BBX 15 8 -2 0
BITMAP
FEF6
3898
1D90
0DF0
0FE0
06E0
0640
0440
ENDCHAR
STARTCHAR x
ENCODING 120
SWIDTH 717 0
DWIDTH 10 0
BBX 14 9 -2 -1
BITMAP
0700
FDF8
0EC0
0780
0300
0780
1CC0
63FC
0300
ENDCHAR
STARTCHAR y
ENCODING 121
SWIDTH 655 0
DWIDTH 9 0
BBX 10 14 -1 -6
BITMAP
8000
7780
39C0
31C0
31C0
71C0
3FC0
1F80
0180
0180
2180
3180
2380
1F00
ENDCHAR
STARTCHAR z
ENCODING 122
SWIDTH 549 0
DWIDTH 8 0
BBX 8 7 0 0
BITMAP
FF
4E
4C
59
3A
72
FE
ENDCHAR
STARTCHAR braceleft
ENCODING 123
SWIDTH 708 0
DWIDTH 10 0
BBX 8 14 1 -2
BITMAP
23
3C
18
18
18
18
38
F8
18
18
18
18
18
1F
ENDCHAR
STARTCHAR bar
ENCODING 124
SWIDTH 304 0
DWIDTH 4 0
BBX 2 13 1 -1
BITMAP
C0
C0
C0
C0
C0
C0
C0
C0
C0
C0
C0
C0
C0
ENDCHAR
STARTCHAR braceright
ENCODING 125
SWIDTH 517 0
DWIDTH 7 0
BBX 8 14 0 -2
BITMAP
84
78
18
18
18
18
1C
1F
18
18
18
18
18
F8
ENDCHAR
STARTCHAR asciitilde
ENCODING 126
SWIDTH 466 0
DWIDTH 7 0
BBX 7 3 0 3
BITMAP
62
FE
9C
ENDCHAR
STARTCHAR uni00A0
ENCODING 160
SWIDTH 320 0
DWIDTH 4 0
BBX 1 1 0 0
BITMAP
00
ENDCHAR
STARTCHAR exclamdown
ENCODING 161
SWIDTH 305 0
DWIDTH 4 0
BBX 4 12 0 -4
BITMAP
30
30
20
20
20
60
60
60
60
60
E0
E0
ENDCHAR
STARTCHAR cent
ENCODING 162
SWIDTH 417 0
DWIDTH 6 0
BBX 6 11 0 -1
BITMAP
30
30
38
4C
CC
C0
C4
C4
78
30
30
ENDCHAR
STARTCHAR sterling
ENCODING 163
SWIDTH 658 0
DWIDTH 9 0
BBX 9 11 0 -1
BITMAP
0080
1E80
3380
3180
FE80
F880
FE80
FE80
3080
7F80
0380
ENDCHAR
STARTCHAR currency
ENCODING 164
SWIDTH 358 0
DWIDTH 5 0
BBX 5 5 0 3
BITMAP
50
F8
50
50
F8
ENDCHAR
STARTCHAR yen
ENCODING 165
SWIDTH 796 0
DWIDTH 11 0
BBX 14 9 -2 0
BITMAP
FE8C
1C70
0E40
0780
0300
0FC0
0FC0
0300
1FF0
ENDCHAR
STARTCHAR brokenbar
ENCODING 166
SWIDTH 304 0
DWIDTH 4 0
BBX 2 13 1 -1
BITMAP
C0
C0
C0
C0
C0
00
00
00
C0
C0
C0
C0
C0
ENDCHAR
STARTCHAR section
ENCODING 167
SWIDTH 646 0
DWIDTH 9 0
BBX 8 17 1 -4
BITMAP
02
7A
C6
C2
E2
F8
7E
CE
C7
E6
FC
7E
8E
87
C6
FC
80
ENDCHAR
STARTCHAR dieresis
ENCODING 168
SWIDTH 708 0
DWIDTH 10 0
BBX 4 1 3 12
BITMAP
F0
ENDCHAR
STARTCHAR copyright
ENCODING 169
SWIDTH 700 0
DWIDTH 10 0
BBX 10 8 0 1
BITMAP
3F00
6D80
D2C0
90C0
92C0
DAC0
6580
3F00
ENDCHAR
STARTCHAR ordfeminine
ENCODING 170
SWIDTH 399 0
DWIDTH 6 0
BBX 6 6 0 5
BITMAP
70
D8
78
D8
F8
1C
ENDCHAR
STARTCHAR guillemotleft
ENCODING 171
SWIDTH 424 0
DWIDTH 6 0
BBX 6 7 0 0
BITMAP
24
2C
48
D8
58
68
24
ENDCHAR
STARTCHAR logicalnot
ENCODING 172
SWIDTH 541 0
DWIDTH 8 0
BBX 8 7 0 1
BITMAP
81
81
FE
FE
82
82
07
ENDCHAR
STARTCHAR sfthyphen
ENCODING 173
SWIDTH 530 0
DWIDTH 7 0
BBX 7 2 0 4
BITMAP
FE
FE
ENDCHAR
STARTCHAR registered
ENCODING 174
SWIDTH 700 0
DWIDTH 10 0
BBX 10 8 0 1
BITMAP
3F00
6180
FFC0
8AC0
88C0
CCC0
5380
3F00
ENDCHAR
STARTCHAR macron
ENCODING 175
SWIDTH 705 0
DWIDTH 10 0
BBX 3 2 4 10
BITMAP
E0
E0
ENDCHAR
STARTCHAR degree
ENCODING 176
SWIDTH 364 0
DWIDTH 5 0
BBX 3 4 1 6
BITMAP
E0
A0
E0
40
ENDCHAR
STARTCHAR plusminus
ENCODING 177
SWIDTH 607 0
DWIDTH 9 0
BBX 8 9 0 0
BITMAP
18
18
FF
FF
18
18
00
FF
FF
ENDCHAR
STARTCHAR twosuperior
ENCODING 178
SWIDTH 440 0
DWIDTH 6 0
BBX 6 8 0 5
BITMAP
80
78
4C
4C
5C
64
FC
FC
ENDCHAR
STARTCHAR threesuperior
ENCODING 179
SWIDTH 442 0
DWIDTH 6 0
BBX 6 9 0 4
BITMAP
80
B8
6C
4C
38
4C
4C
F8
80
ENDCHAR
STARTCHAR acute
ENCODING 180
SWIDTH 694 0
DWIDTH 10 0
BBX 3 4 4 10
BITMAP
40
60
C0
40
ENDCHAR
STARTCHAR mu
ENCODING 181
SWIDTH 1000 0
DWIDTH 14 0
BBX 11 11 0 -4
BITMAP
F7C0
31C0
3180
3180
3180
3180
3FE0
3100
3000
3000
3000
ENDCHAR
STARTCHAR paragraph
ENCODING 182
SWIDTH 782 0
DWIDTH 11 0
BBX 12 10 0 -1
BITMAP
7FF0
ED00
CD00
ED00
1F00
0D00
0D00
0F00
1FE0
E000
ENDCHAR
STARTCHAR periodcentered
ENCODING 183
SWIDTH 226 0
DWIDTH 3 0
BBX 3 2 0 4
BITMAP
E0
E0
ENDCHAR
STARTCHAR cedilla
ENCODING 184
SWIDTH 780 0
DWIDTH 11 0
BBX 3 5 4 -3
BITMAP
40
C0
20
E0
40
ENDCHAR
STARTCHAR onesuperior
ENCODING 185
SWIDTH 390 0
DWIDTH 5 0
BBX 5 7 0 5
BITMAP
F0
30
30
30
30
30
78
ENDCHAR
STARTCHAR ordmasculine
ENCODING 186
SWIDTH 449 0
DWIDTH 6 0
BBX 6 5 0 6
BITMAP
38
CC
84
CC
78
ENDCHAR
STARTCHAR guillemotright
ENCODING 187
SWIDTH 415 0
DWIDTH 6 0
BBX 6 7 0 0
BITMAP
90
D0
58
6C
68
58
90
ENDCHAR
STARTCHAR onequarter
ENCODING 188
SWIDTH 918 0
DWIDTH 13 0
BBX 13 14 0 -2
BITMAP
F030
3060
30E0
30C0
3180
3190
7B20
0260
06E8
0DF0
0FF0
1830
30F0
1108
ENDCHAR
STARTCHAR onehalf
ENCODING 189
SWIDTH 1007 0
DWIDTH 14 0
BBX 14 14 0 -2
BITMAP
F030
3060
30E0
30C0
3180
3180
7B80
0278
064C
0C4C
0C5C
1864
30FC
10FC
ENDCHAR
STARTCHAR threequarters
ENCODING 190
SWIDTH 936 0
DWIDTH 13 0
BBX 13 15 0 -2
BITMAP
8000
B830
6C60
4C60
38C0
4CC0
4D90
FB20
8360
0668
04A8
0DF8
1A28
18F0
3108
ENDCHAR
STARTCHAR questiondown
ENCODING 191
SWIDTH 568 0
DWIDTH 8 0
BBX 8 13 0 -5
BITMAP
07
07
00
06
0C
7C
E2
C0
C1
E1
7F
02
01
ENDCHAR
STARTCHAR Agrave
ENCODING 192
SWIDTH 788 0
DWIDTH 11 0
BBX 16 17 -2 -3
BITMAP
0100
0300
0300
0100
1000
0F80
0180
0380
03C0
04C0
04E0
0FE0
1870
3030
FE38
003F
0060
ENDCHAR
STARTCHAR Aacute
ENCODING 193
SWIDTH 788 0
DWIDTH 11 0
BBX 16 17 -2 -3
BITMAP
0100
0180
0100
0300
1000
0F80
0180
0380
03C0
04C0
04E0
0FE0
1870
3030
FE38
003F
0060
ENDCHAR
STARTCHAR Acircumflex
ENCODING 194
SWIDTH 788 0
DWIDTH 11 0
BBX 16 17 -2 -3
BITMAP
0100
0380
06C0
0000
1000
0F80
0180
0380
03C0
04C0
04E0
0FE0
1870
3030
FE38
003F
0060
ENDCHAR
STARTCHAR Atilde
ENCODING 195
SWIDTH 788 0
DWIDTH 11 0
BBX 16 15 -2 -3
BITMAP
03C0
05C0
1000
0F80
0180
0380
03C0
04C0
04E0
0FE0
1870
3030
FE38
003F
0060
ENDCHAR
STARTCHAR Adieresis
ENCODING 196
SWIDTH 788 0
DWIDTH 11 0
BBX 16 15 -2 -3
BITMAP
06C0
0000
1000
0F80
0180
0380
03C0
04C0
04E0
0FE0
1870
3030
FE38
003F
0060
ENDCHAR
STARTCHAR Aring
ENCODING 197
SWIDTH 788 0
DWIDTH 11 0
BBX 16 15 -2 -3
BITMAP
0180
0280
1380
0F00
0180
0380
03C0
04C0
04E0
0FE0
1870
3030
FE38
003F
0060
ENDCHAR
STARTCHAR AE
ENCODING 198
SWIDTH 1019 0
DWIDTH 14 0
BBX 18 11 -4 -1
BITMAP
07FFC0
01F0C0
00F240
01B240
013240
033E40
07FE40
07F280
0C3280
18FF80
FF0000
ENDCHAR
STARTCHAR Ccedilla
ENCODING 199
SWIDTH 766 0
DWIDTH 11 0
BBX 11 16 0 -5
BITMAP
0020
0620
3FC0
70C0
6040
E040
E000
E000
6040
7040
3FC0
0F20
0800
0600
0A00
0C00
ENDCHAR
STARTCHAR Egrave
ENCODING 200
SWIDTH 781 0
DWIDTH 11 0
BBX 11 15 -1 0
BITMAP
0200
0600
0200
0300
0000
DFE0
3C20
1CA0
1CA0
1D20
1F20
1F20
1D20
1CA0
FFE0
ENDCHAR
STARTCHAR Eacute
ENCODING 201
SWIDTH 781 0
DWIDTH 11 0
BBX 11 14 -1 0
BITMAP
0200
0300
0300
0200
DFE0
3C20
1CA0
1CA0
1D20
1F20
1F20
1D20
1CA0
FFE0
ENDCHAR
STARTCHAR Ecircumflex
ENCODING 202
SWIDTH 781 0
DWIDTH 11 0
BBX 11 14 -1 0
BITMAP
0200
0700
0D80
0000
DFE0
3C20
1CA0
1CA0
1D20
1F20
1F20
1D20
1CA0
FFE0
ENDCHAR
STARTCHAR Edieresis
ENCODING 203
SWIDTH 781 0
DWIDTH 11 0
BBX 11 12 -1 0
BITMAP
0D80
0000
DFE0
3C20
1CA0
1CA0
1D20
1F20
1F20
1D20
1CA0
FFE0
ENDCHAR
STARTCHAR Igrave
ENCODING 204
SWIDTH 445 0
DWIDTH 6 0
BBX 9 16 -1 -1
BITMAP
0800
3800
1800
0800
0000
FF80
3C00
1C00
1C00
1800
1800
1800
1800
1800
1800
FF00
ENDCHAR
STARTCHAR Iacute
ENCODING 205
SWIDTH 445 0
DWIDTH 6 0
BBX 9 15 -1 -1
BITMAP
0800
0C00
0800
0800
FF80
3C00
1C00
1C00
1800
1800
1800
1800
1800
1800
FF00
ENDCHAR
STARTCHAR Icircumflex
ENCODING 206
SWIDTH 445 0
DWIDTH 6 0
BBX 9 15 -1 -1
BITMAP
0800
1C00
3600
0000
FF80
3C00
1C00
1C00
1800
1800
1800
1800
1800
1800
FF00
ENDCHAR
STARTCHAR Idieresis
ENCODING 207
SWIDTH 445 0
DWIDTH 6 0
BBX 9 13 -1 -1
BITMAP
3400
0000
FF80
3C00
1C00
1C00
1800
1800
1800
1800
1800
1800
FF00
ENDCHAR
STARTCHAR Eth
ENCODING 208
SWIDTH 1000 0
DWIDTH 14 0
BBX 13 9 0 0
BITMAP
FFE0
0E30
0E18
0E18
7F98
0E18
0C18
0C30
7FE0
ENDCHAR
STARTCHAR Ntilde
ENCODING 209
SWIDTH 840 0
DWIDTH 12 0
BBX 14 14 -1 -1
BITMAP
0780
0780
0000
FFFC
1E20
1E20
1720
1BA0
19E0
19E0
18E0
1860
FFA0
0010
ENDCHAR
STARTCHAR Ograve
ENCODING 210
SWIDTH 808 0
DWIDTH 11 0
BBX 11 14 0 0
BITMAP
0200
0E00
0600
0200
0000
0E00
3F80
70C0
E0E0
E0E0
E0E0
60E0
71C0
1F80
ENDCHAR
STARTCHAR Oacute
ENCODING 211
SWIDTH 808 0
DWIDTH 11 0
BBX 11 13 0 0
BITMAP
0400
0700
0600
0400
0E00
3F80
70C0
E0E0
E0E0
E0E0
60E0
71C0
1F80
ENDCHAR
STARTCHAR Ocircumflex
ENCODING 212
SWIDTH 808 0
DWIDTH 11 0
BBX 11 13 0 0
BITMAP
0400
0E00
1B00
0000
0E00
3F80
70C0
E0E0
E0E0
E0E0
60E0
71C0
1F80
ENDCHAR
STARTCHAR Otilde
ENCODING 213
SWIDTH 808 0
DWIDTH 11 0
BBX 11 12 0 0
BITMAP
0F00
0F00
0000
0E00
3F80
70C0
E0E0
E0E0
E0E0
60E0
71C0
1F80
ENDCHAR
STARTCHAR Odieresis
ENCODING 214
SWIDTH 808 0
DWIDTH 11 0
BBX 11 11 0 0
BITMAP
0B00
0000
0E00
3F80
70C0
E0E0
E0E0
E0E0
60E0
71C0
1F80
ENDCHAR
STARTCHAR multiply
ENCODING 215
SWIDTH 556 0
DWIDTH 8 0
BBX 8 8 0 1
BITMAP
40
66
FF
3C
3C
7E
E7
42
ENDCHAR
STARTCHAR Oslash
ENCODING 216
SWIDTH 808 0
DWIDTH 11 0
BBX 11 12 0 -2
BITMAP
0080
0FC0
3F80
73C0
E7E0
E6E0
ECE0
6CE0
79C0
1F80
3000
1000
ENDCHAR
STARTCHAR Ugrave
ENCODING 217
SWIDTH 725 0
DWIDTH 10 0
BBX 12 14 -1 0
BITMAP
0200
0600
0600
0300
0000
FFF0
3840
3840
3840
3840
3840
3840
38C0
1F80
ENDCHAR
STARTCHAR Uacute
ENCODING 218
SWIDTH 725 0
DWIDTH 10 0
BBX 12 14 -1 0
BITMAP
0200
0300
0600
0200
0000
FFF0
3840
3840
3840
3840
3840
3840
38C0
1F80
ENDCHAR
STARTCHAR Ucircumflex
ENCODING 219
SWIDTH 725 0
DWIDTH 10 0
BBX 12 14 -1 0
BITMAP
0200
0700
0D80
0000
0000
FFF0
3840
3840
3840
3840
3840
3840
38C0
1F80
ENDCHAR
STARTCHAR Udieresis
ENCODING 220
SWIDTH 725 0
DWIDTH 10 0
BBX 12 12 -1 0
BITMAP
0D80
0000
0000
FFF0
3840
3840
3840
3840
3840
3840
38C0
1F80
ENDCHAR
STARTCHAR Yacute
ENCODING 221
SWIDTH 848 0
DWIDTH 12 0
BBX 15 15 -2 -1
BITMAP
0080
00E0
00C0
0080
0100
FE00
0C7E
0630
0760
03C0
0180
0180
0180
0180
0FF8
ENDCHAR
STARTCHAR Thorn
ENCODING 222
SWIDTH 745 0
DWIDTH 10 0
BBX 12 9 -1 0
BITMAP
FF00
1800
1FC0
1860
1830
18E0
1F80
1C00
FF80
ENDCHAR
STARTCHAR germandbls
ENCODING 223
SWIDTH 986 0
DWIDTH 14 0
BBX 15 19 -1 -6
BITMAP
0780
0CC0
0860
1860
1860
1860
78C0
18C0
1DC0
0CC0
0CF0
0D7C
0C8E
0CC6
0CFC
CD00
CC00
7800
1000
ENDCHAR
STARTCHAR agrave
ENCODING 224
SWIDTH 572 0
DWIDTH 8 0
BBX 9 13 0 0
BITMAP
0400
0C00
0C00
0600
0000
3C00
6600
6600
4600
7E00
C600
EE00
3F80
ENDCHAR
STARTCHAR aacute
ENCODING 225
SWIDTH 572 0
DWIDTH 8 0
BBX 9 12 0 0
BITMAP
0800
0C00
0C00
0800
3C00
6600
6600
4600
7E00
C600
EE00
3F80
ENDCHAR
STARTCHAR acircumflex
ENCODING 226
SWIDTH 572 0
DWIDTH 8 0
BBX 9 12 0 0
BITMAP
0800
1C00
3600
0000
3C00
6600
6600
4600
7E00
C600
EE00
3F80
ENDCHAR
STARTCHAR atilde
ENCODING 227
SWIDTH 572 0
DWIDTH 8 0
BBX 9 11 0 0
BITMAP
1E00
2E00
0000
3C00
6600
6600
4600
7E00
C600
EE00
3F80
ENDCHAR
STARTCHAR adieresis
ENCODING 228
SWIDTH 572 0
DWIDTH 8 0
BBX 9 10 0 0
BITMAP
3400
0000
3C00
6600
6600
4600
7E00
C600
EE00
3F80
ENDCHAR
STARTCHAR aring
ENCODING 229
SWIDTH 572 0
DWIDTH 8 0
BBX 9 10 0 0
BITMAP
1C00
1400
1C00
6600
6600
4600
7E00
C600
EE00
3F80
ENDCHAR
STARTCHAR ae
ENCODING 230
SWIDTH 1022 0
DWIDTH 14 0
BBX 14 8 0 0
BITMAP
3800
6EF8
E78C
478C
7FFC
C784
EEF8
3F80
ENDCHAR
STARTCHAR ccedilla
ENCODING 231
SWIDTH 589 0
DWIDTH 8 0
BBX 8 12 0 -5
BITMAP
1E
77
63
E2
E1
61
7F
1C
10
0C
14
18
ENDCHAR
STARTCHAR egrave
ENCODING 232
SWIDTH 593 0
DWIDTH 8 0
BBX 8 12 0 -1
BITMAP
04
0C
0C
04
00
3E
63
E3
FF
61
72
1C
ENDCHAR
STARTCHAR eacute
ENCODING 233
SWIDTH 593 0
DWIDTH 8 0
BBX 8 12 0 -1
BITMAP
08
0C
0C
08
00
3E
63
E3
FF
61
72
1C
ENDCHAR
STARTCHAR ecircumflex
ENCODING 234
SWIDTH 593 0
DWIDTH 8 0
BBX 8 12 0 -1
BITMAP
08
1C
36
00
00
3E
63
E3
FF
61
72
1C
ENDCHAR
STARTCHAR edieresis
ENCODING 235
SWIDTH 593 0
DWIDTH 8 0
BBX 8 10 0 -1
BITMAP
16
00
00
3E
63
E3
FF
61
72
1C
ENDCHAR
STARTCHAR igrave
ENCODING 236
SWIDTH 393 0
DWIDTH 6 0
BBX 6 12 0 0
BITMAP
10
70
30
10
80
78
30
30
30
30
30
FC
ENDCHAR
STARTCHAR iacute
ENCODING 237
SWIDTH 393 0
DWIDTH 6 0
BBX 6 12 0 0
BITMAP
10
18
10
30
80
78
30
30
30
30
30
FC
ENDCHAR
STARTCHAR icircumflex
ENCODING 238
SWIDTH 393 0
DWIDTH 6 0
BBX 6 12 0 0
BITMAP
10
38
6C
00
80
78
30
30
30
30
30
FC
ENDCHAR
STARTCHAR idieresis
ENCODING 239
SWIDTH 393 0
DWIDTH 6 0
BBX 6 10 0 0
BITMAP
6C
00
80
78
30
30
30
30
30
FC
ENDCHAR
STARTCHAR eth
ENCODING 240
SWIDTH 672 0
DWIDTH 9 0
BBX 9 12 0 -1
BITMAP
7180
0F00
0E00
3B00
1300
0180
7F80
E180
C180
C180
E180
7F00
ENDCHAR
STARTCHAR ntilde
ENCODING 241
SWIDTH 643 0
DWIDTH 9 0
BBX 11 10 -1 1
BITMAP
0F00
0B00
0000
0800
FF80
19C0
18C0
18C0
1880
67E0
ENDCHAR
STARTCHAR ograve
ENCODING 242
SWIDTH 705 0
DWIDTH 10 0
BBX 10 11 0 0
BITMAP
0400
0C00
0400
0600
1E00
7380
E1C0
C1C0
E1C0
6180
3F00
ENDCHAR
STARTCHAR oacute
ENCODING 243
SWIDTH 705 0
DWIDTH 10 0
BBX 10 11 0 0
BITMAP
0400
0600
0C00
0400
1E00
7380
E1C0
C1C0
E1C0
6180
3F00
ENDCHAR
STARTCHAR ocircumflex
ENCODING 244
SWIDTH 705 0
DWIDTH 10 0
BBX 10 11 0 0
BITMAP
0400
0C00
1B00
0000
1E00
7380
E1C0
C1C0
E1C0
6180
3F00
ENDCHAR
STARTCHAR otilde
ENCODING 245
SWIDTH 705 0
DWIDTH 10 0
BBX 10 10 0 0
BITMAP
1E00
1600
0000
1E00
7380
E1C0
C1C0
E1C0
6180
3F00
ENDCHAR
STARTCHAR odieresis
ENCODING 246
SWIDTH 705 0
DWIDTH 10 0
BBX 10 9 0 0
BITMAP
1A00
0000
1E00
7380
E1C0
C1C0
E1C0
6180
3F00
ENDCHAR
STARTCHAR divide
ENCODING 247
SWIDTH 504 0
DWIDTH 7 0
BBX 7 8 0 0
BITMAP
18
38
00
FE
FE
00
38
38
ENDCHAR
STARTCHAR oslash
ENCODING 248
SWIDTH 705 0
DWIDTH 10 0
BBX 10 11 0 -2
BITMAP
0100
0180
1F00
7780
E780
CDC0
EDC0
7980
3F00
3000
2000
ENDCHAR
STARTCHAR ugrave
ENCODING 249
SWIDTH 614 0
DWIDTH 9 0
BBX 11 13 -1 -1
BITMAP
0400
0C00
0C00
0600
0000
F780
3180
3180
3180
3180
3180
1FE0
0100
ENDCHAR
STARTCHAR uacute
ENCODING 250
SWIDTH 614 0
DWIDTH 9 0
BBX 11 13 -1 -1
BITMAP
0400
0600
0400
0C00
0000
F780
3180
3180
3180
3180
3180
1FE0
0100
ENDCHAR
STARTCHAR ucircumflex
ENCODING 251
SWIDTH 614 0
DWIDTH 9 0
BBX 11 12 -1 -1
BITMAP
0400
0E00
1B00
0000
F780
3180
3180
3180
3180
3180
1FE0
0100
ENDCHAR
STARTCHAR udieresis
ENCODING 252
SWIDTH 614 0
DWIDTH 9 0
BBX 11 11 -1 -1
BITMAP
1A00
0000
0000
F780
3180
3180
3180
3180
3180
1FE0
0100
ENDCHAR
STARTCHAR yacute
ENCODING 253
SWIDTH 655 0
DWIDTH 9 0
BBX 10 18 -1 -6
BITMAP
0400
0600
0400
0C00
8000
7780
39C0
31C0
31C0
71C0
3FC0
1F80
0180
0180
2180
3180
2380
1F00
ENDCHAR
STARTCHAR thorn
ENCODING 254
SWIDTH 734 0
DWIDTH 10 0
BBX 11 16 -1 -6
BITMAP
F800
3800
1800
1800
1800
1B00
1FE0
1860
1860
1860
1CE0
1F80
1800
1800
1C00
FF00
ENDCHAR
STARTCHAR ydieresis
ENCODING 255
SWIDTH 655 0
DWIDTH 9 0
BBX 10 16 -1 -6
BITMAP
1A00
0000
8000
7780
39C0
31C0
31C0
71C0
3FC0
1F80
0180
0180
2180
3180
2380
1F00
ENDCHAR
STARTCHAR dotlessi
ENCODING 305
SWIDTH 393 0
DWIDTH 6 0
BBX 6 7 0 0
BITMAP
F8
30
30
30
30
30
FC
ENDCHAR
STARTCHAR Lslash
ENCODING 321
SWIDTH 713 0
DWIDTH 10 0
BBX 11 11 -1 0
BITMAP
FF80
1C00
1C00
1E00
1F00
3C20
7C20
1C20
0C60
1FE0
FF80
ENDCHAR
STARTCHAR lslash
ENCODING 322
SWIDTH 365 0
DWIDTH 5 0
BBX 8 13 -2 -1
BITMAP
FC
1C
0C
0C
0F
1E
7C
2C
0C
0C
0C
0C
3F
ENDCHAR
STARTCHAR OE
ENCODING 338
SWIDTH 1195 0
DWIDTH 17 0
BBX 16 10 0 0
BITMAP
06FF
01E1
3EE5
73E5
E1E9
C1F9
C1F9
63E9
3FE5
07FF
ENDCHAR
STARTCHAR oe
ENCODING 339
SWIDTH 1087 0
DWIDTH 15 0
BBX 15 7 0 -1
BITMAP
7F78
E3CC
C186
C1FE
6382
3EE4
0078
ENDCHAR
STARTCHAR Scaron
ENCODING 352
SWIDTH 661 0
DWIDTH 9 0
BBX 9 16 0 -2
BITMAP
3200
1C00
0C00
0000
0080
7E80
E380
E080
FC80
7F00
0F80
4380
4380
7F00
8000
8000
ENDCHAR
STARTCHAR scaron
ENCODING 353
SWIDTH 533 0
DWIDTH 7 0
BBX 7 14 0 -1
BITMAP
26
3C
18
00
02
7E
C6
E2
7E
BE
46
E6
BC
80
ENDCHAR
STARTCHAR Ydieresis
ENCODING 376
SWIDTH 848 0
DWIDTH 12 0
BBX 15 13 -2 -1
BITMAP
0340
0000
0100
FE00
0C7E
0630
0760
03C0
0180
0180
0180
0180
0FF8
ENDCHAR
STARTCHAR Zcaron
ENCODING 381
SWIDTH 685 0
DWIDTH 10 0
BBX 10 13 0 0
BITMAP
1300
1E00
0C00
0000
01C0
FF80
4700
4700
4E40
1C40
3880
7C80
FF80
ENDCHAR
STARTCHAR zcaron
ENCODING 382
SWIDTH 549 0
DWIDTH 8 0
BBX 8 12 0 0
BITMAP
26
3C
18
00
00
FF
4E
4C
59
3A
72
FE
ENDCHAR
STARTCHAR circumflex
ENCODING 710
SWIDTH 714 0
DWIDTH 10 0
BBX 5 3 3 10
BITMAP
20
70
D8
ENDCHAR
STARTCHAR caron
ENCODING 711
SWIDTH 714 0
DWIDTH 10 0
BBX 5 3 3 10
BITMAP
88
70
20
ENDCHAR
STARTCHAR breve
ENCODING 728
SWIDTH 715 0
DWIDTH 10 0
BBX 5 3 3 10
BITMAP
C8
70
20
ENDCHAR
STARTCHAR dotaccent
ENCODING 729
SWIDTH 708 0
DWIDTH 10 0
BBX 2 1 4 12
BITMAP
C0
ENDCHAR
STARTCHAR ring
ENCODING 730
SWIDTH 704 0
DWIDTH 10 0
BBX 3 3 4 10
BITMAP
E0
A0
E0
ENDCHAR
STARTCHAR ogonek
ENCODING 731
SWIDTH 988 0
DWIDTH 14 0
BBX 5 4 4 -2
BITMAP
40
C0
F8
70
ENDCHAR
STARTCHAR tilde
ENCODING 732
SWIDTH 707 0
DWIDTH 10 0
BBX 5 2 3 10
BITMAP
F8
B8
ENDCHAR
STARTCHAR hungarumlaut
ENCODING 733
SWIDTH 671 0
DWIDTH 9 0
BBX 5 4 3 10
BITMAP
90
D8
F0
90
ENDCHAR
STARTCHAR endash
ENCODING 8211
SWIDTH 576 0
DWIDTH 8 0
BBX 6 2 1 4
BITMAP
FC
FC
ENDCHAR
STARTCHAR emdash
ENCODING 8212
SWIDTH 993 0
DWIDTH 14 0
BBX 12 2 1 4
BITMAP
FFF0
FFF0
ENDCHAR
STARTCHAR quoteleft
ENCODING 8216
SWIDTH 261 0
DWIDTH 4 0
BBX 4 4 0 6
BITMAP
30
60
E0
60
ENDCHAR
STARTCHAR quoteright
ENCODING 8217
SWIDTH 301 0
DWIDTH 4 0
BBX 4 4 0 6
BITMAP
60
70
60
C0
ENDCHAR
STARTCHAR quotesinglbase
ENCODING 8218
SWIDTH 332 0
DWIDTH 5 0
BBX 4 4 0 -1
BITMAP
60
70
60
C0
ENDCHAR
STARTCHAR quotedblleft
ENCODING 8220
SWIDTH 477 0
DWIDTH 7 0
BBX 7 4 0 6
BITMAP
36
6C
FC
6C
ENDCHAR
STARTCHAR quotedblright
ENCODING 8221
SWIDTH 477 0
DWIDTH 7 0
BBX 7 4 0 6
BITMAP
7E
6C
FC
D8
ENDCHAR
STARTCHAR quotedblbase
ENCODING 8222
SWIDTH 477 0
DWIDTH 7 0
BBX 7 4 0 -1
BITMAP
7E
6C
FC
D8
ENDCHAR
STARTCHAR dagger
ENCODING 8224
SWIDTH 487 0
DWIDTH 7 0
BBX 7 16 0 -4
BITMAP
38
38
38
38
FE
FC
18
18
18
18
10
10
10
10
10
10
ENDCHAR
STARTCHAR daggerdbl
ENCODING 8225
SWIDTH 497 0
DWIDTH 7 0
BBX 7 16 0 -4
BITMAP
38
38
38
38
FE
FC
18
FC
FE
18
10
10
10
10
10
10
ENDCHAR
STARTCHAR bullet
ENCODING 8226
SWIDTH 275 0
DWIDTH 4 0
BBX 4 4 0 3
BITMAP
E0
F0
F0
40
ENDCHAR
STARTCHAR ellipsis
ENCODING 8230
SWIDTH 787 0
DWIDTH 11 0
BBX 11 2 0 -1
BITMAP
EEE0
EEE0
ENDCHAR
STARTCHAR perthousand
ENCODING 8240
SWIDTH 888 0
DWIDTH 12 0
BBX 13 12 0 -1
BITMAP
0200
F300
9600
F600
2C00
0C00
0800
1B30
16F8
36C8
33F0
2000
ENDCHAR
STARTCHAR guilsinglleft
ENCODING 8249
SWIDTH 234 0
DWIDTH 3 0
BBX 3 7 0 0
BITMAP
20
20
40
C0
40
60
20
ENDCHAR
STARTCHAR guilsinglright
ENCODING 8250
SWIDTH 223 0
DWIDTH 3 0
BBX 3 7 0 0
BITMAP
80
C0
40
60
60
40
80
ENDCHAR
STARTCHAR fraction
ENCODING 8260
SWIDTH 600 0
DWIDTH 8 0
BBX 9 14 0 -2
BITMAP
0200
0380
0700
0700
0E00
0C00
1C00
1800
3800
7000
6000
E000
C000
4000
ENDCHAR
STARTCHAR Euro
ENCODING 8364
SWIDTH 590 0
DWIDTH 8 0
BBX 8 8 0 1
BITMAP
1E
33
63
FC
60
FD
31
3E
ENDCHAR
STARTCHAR trademark
ENCODING 8482
SWIDTH 624 0
DWIDTH 9 0
BBX 9 6 0 4
BITMAP
4000
E000
7D00
4B00
BB80
4400
ENDCHAR
STARTCHAR minus
ENCODING 8722
SWIDTH 549 0
DWIDTH 8 0
BBX 8 2 0 4
BITMAP
FF
FE
ENDCHAR
STARTCHAR fi
ENCODING 64257
SWIDTH 757 0
DWIDTH 11 0
BBX 12 19 -1 -6
BITMAP
0FC0
18C0
18E0
18E0
1840
1800
7FE0
18E0
1CC0
0CC0
0CC0
0C40
0FF0
0C00
0C00
CC00
CC00
7800
3000
ENDCHAR
STARTCHAR fl
ENCODING 64258
SWIDTH 776 0
DWIDTH 11 0
BBX 13 20 -1 -6
BITMAP
0200
0FC0
08C0
18E0
18E0
18E0
18E0
7F60
1860
1C60
0C60
0C60
0C40
0C40
0DF8
0E00
CC00
CC00
7800
3000
ENDCHAR
STARTCHAR .notdef
ENCODING -1
SWIDTH 320 0
DWIDTH 4 0
BBX 1 1 0 0
BITMAP
00
ENDCHAR
ENDFONT
